<?xml version="1.0" encoding="UTF-8" standalone="no"?><!-- Generator: Gravit.io --><svg xmlns="http://www.w3.org/2000/svg" xmlns:xlink="http://www.w3.org/1999/xlink" style="isolation:isolate" viewBox="0 0 186 159" width="186pt" height="159pt"><defs><clipPath id="_clipPath_Zjg54KpLqvoqAlpZ4A3KUhui4PyABHmc"><rect width="186" height="159"/></clipPath></defs><g clip-path="url(#_clipPath_Zjg54KpLqvoqAlpZ4A3KUhui4PyABHmc)"><g><g style="mix-blend-mode:normal;" opacity="0.85"><path d="M 72.341 158.857 L 175.575 158.857 C 181.294 158.857 185.938 154.214 185.938 148.495 L 185.938 71.895 C 185.938 66.176 181.294 61.532 175.575 61.532 L 72.341 61.532 C 66.622 61.532 61.979 66.176 61.979 71.895 L 61.979 148.495 C 61.979 154.214 66.622 158.857 72.341 158.857 Z" style="stroke:none;fill:#50FFA5;stroke-miterlimit:10;"/></g><g style="mix-blend-mode:normal;" opacity="0.84"><path d="M 166.426 92.687 L 81.491 92.687 C 78.617 92.687 76.283 90.354 76.283 87.479 L 76.283 86.649 C 76.283 83.775 78.617 81.441 81.491 81.441 L 166.426 81.441 C 169.3 81.441 171.634 83.775 171.634 86.649 L 171.634 87.479 C 171.634 90.354 169.3 92.687 166.426 92.687 Z" style="stroke:none;fill:#BFFFDE;stroke-miterlimit:10;"/></g><g style="mix-blend-mode:normal;" opacity="0.84"><path d="M 166.426 115.628 L 81.491 115.628 C 78.617 115.628 76.283 113.294 76.283 110.42 L 76.283 109.589 C 76.283 106.715 78.617 104.381 81.491 104.381 L 166.426 104.381 C 169.3 104.381 171.634 106.715 171.634 109.589 L 171.634 110.42 C 171.634 113.294 169.3 115.628 166.426 115.628 Z" style="stroke:none;fill:#BFFFDE;stroke-miterlimit:10;"/></g><g style="mix-blend-mode:normal;" opacity="0.84"><path d="M 166.426 138.949 L 81.491 138.949 C 78.617 138.949 76.283 136.615 76.283 133.741 L 76.283 132.91 C 76.283 130.036 78.617 127.702 81.491 127.702 L 166.426 127.702 C 169.3 127.702 171.634 130.036 171.634 132.91 L 171.634 133.741 C 171.634 136.615 169.3 138.949 166.426 138.949 Z" style="stroke:none;fill:#BFFFDE;stroke-miterlimit:10;"/></g><g style="mix-blend-mode:normal;" opacity="0.71"><path d="M 113.596 0 L 10.362 0 C 4.643 0 0 4.643 0 10.362 L 0 86.963 C 0 92.682 4.643 97.325 10.362 97.325 L 113.596 97.325 C 119.315 97.325 123.958 92.682 123.958 86.963 L 123.958 10.362 C 123.958 4.643 119.315 0 113.596 0 Z" style="stroke:none;fill:#50CBFF;stroke-miterlimit:10;"/></g><g style="mix-blend-mode:normal;" opacity="0.84"><path d="M 104.447 31.155 L 19.512 31.155 C 16.637 31.155 14.304 28.821 14.304 25.947 L 14.304 25.116 C 14.304 22.242 16.637 19.908 19.512 19.908 L 104.447 19.908 C 107.321 19.908 109.655 22.242 109.655 25.116 L 109.655 25.947 C 109.655 28.821 107.321 31.155 104.447 31.155 Z" style="stroke:none;fill:#B9EAFF;stroke-miterlimit:10;"/></g><g style="mix-blend-mode:normal;" opacity="0.84"><path d="M 104.447 54.095 L 19.512 54.095 C 16.637 54.095 14.304 51.762 14.304 48.887 L 14.304 48.057 C 14.304 45.182 16.637 42.849 19.512 42.849 L 104.447 42.849 C 107.321 42.849 109.655 45.182 109.655 48.057 L 109.655 48.887 C 109.655 51.762 107.321 54.095 104.447 54.095 Z" style="stroke:none;fill:#B9EAFF;stroke-miterlimit:10;"/></g><g style="mix-blend-mode:normal;" opacity="0.84"><path d="M 104.447 77.416 L 19.512 77.416 C 16.637 77.416 14.304 75.083 14.304 72.208 L 14.304 71.378 C 14.304 68.504 16.637 66.17 19.512 66.17 L 104.447 66.17 C 107.321 66.17 109.655 68.504 109.655 71.378 L 109.655 72.208 C 109.655 75.083 107.321 77.416 104.447 77.416 Z" style="stroke:none;fill:#B9EAFF;stroke-miterlimit:10;"/></g><path d=" M 178.738 62.481 L 138.996 34.844 L 138.996 62.481 L 178.738 62.481 Z " fill="rgb(38,255,143)"/><path d=" M 6.567 96.186 L 44.35 123.823 L 44.35 96.186 L 6.567 96.186 Z " fill="rgb(104,210,255)"/></g></g></svg>