<?xml version="1.0" encoding="UTF-8" standalone="no"?><!-- Generator: Gravit.io --><svg xmlns="http://www.w3.org/2000/svg" xmlns:xlink="http://www.w3.org/1999/xlink" style="isolation:isolate" viewBox="0 0 186 159" width="186pt" height="159pt"><defs><clipPath id="_clipPath_IjY9GQQfQey0INb4QouLhZ8El6lZROOu"><rect width="186" height="159"/></clipPath></defs><g clip-path="url(#_clipPath_IjY9GQQfQey0INb4QouLhZ8El6lZROOu)"><g><g style="mix-blend-mode:normal;" opacity="0.85"><path d="M 72.342 158.86 L 175.578 158.86 C 181.297 158.86 185.94 154.217 185.94 148.497 L 185.94 71.893 C 185.94 66.173 181.297 61.53 175.578 61.53 L 72.342 61.53 C 66.623 61.53 61.98 66.173 61.98 71.893 L 61.98 148.497 C 61.98 154.217 66.623 158.86 72.342 158.86 Z" style="stroke:none;fill:#00E66F;stroke-miterlimit:10;"/></g><g style="mix-blend-mode:normal;" opacity="0.84"><path d="M 166.422 92.69 L 81.488 92.69 C 78.614 92.69 76.28 90.356 76.28 87.48 L 76.28 86.65 C 76.28 83.774 78.614 81.44 81.488 81.44 L 166.422 81.44 C 169.296 81.44 171.63 83.774 171.63 86.65 L 171.63 87.48 C 171.63 90.356 169.296 92.69 166.422 92.69 Z" style="stroke:none;fill:#BFFFDE;stroke-miterlimit:10;"/></g><g style="mix-blend-mode:normal;" opacity="0.84"><path d="M 166.422 115.63 L 81.488 115.63 C 78.614 115.63 76.28 113.296 76.28 110.42 L 76.28 109.59 C 76.28 106.714 78.614 104.38 81.488 104.38 L 166.422 104.38 C 169.296 104.38 171.63 106.714 171.63 109.59 L 171.63 110.42 C 171.63 113.296 169.296 115.63 166.422 115.63 Z" style="stroke:none;fill:#BFFFDE;stroke-miterlimit:10;"/></g><g style="mix-blend-mode:normal;" opacity="0.84"><path d="M 166.422 138.95 L 81.488 138.95 C 78.614 138.95 76.28 136.616 76.28 133.74 L 76.28 132.91 C 76.28 130.034 78.614 127.7 81.488 127.7 L 166.422 127.7 C 169.296 127.7 171.63 130.034 171.63 132.91 L 171.63 133.74 C 171.63 136.616 169.296 138.95 166.422 138.95 Z" style="stroke:none;fill:#BFFFDE;stroke-miterlimit:10;"/></g><g style="mix-blend-mode:normal;" opacity="0.71"><path d="M 113.598 0 L 10.362 0 C 4.643 0 0 4.643 0 10.362 L 0 86.958 C 0 92.677 4.643 97.32 10.362 97.32 L 113.598 97.32 C 119.317 97.32 123.96 92.677 123.96 86.958 L 123.96 10.362 C 123.96 4.643 119.317 0 113.598 0 Z" style="stroke:none;fill:#06B4FF;stroke-miterlimit:10;"/></g><g style="mix-blend-mode:normal;" opacity="0.84"><path d="M 104.442 31.16 L 19.508 31.16 C 16.634 31.16 14.3 28.826 14.3 25.95 L 14.3 25.12 C 14.3 22.244 16.634 19.91 19.508 19.91 L 104.442 19.91 C 107.316 19.91 109.65 22.244 109.65 25.12 L 109.65 25.95 C 109.65 28.826 107.316 31.16 104.442 31.16 Z" style="stroke:none;fill:#B9EAFF;stroke-miterlimit:10;"/></g><g style="mix-blend-mode:normal;" opacity="0.84"><path d="M 104.442 54.1 L 19.508 54.1 C 16.634 54.1 14.3 51.766 14.3 48.89 L 14.3 48.06 C 14.3 45.184 16.634 42.85 19.508 42.85 L 104.442 42.85 C 107.316 42.85 109.65 45.184 109.65 48.06 L 109.65 48.89 C 109.65 51.766 107.316 54.1 104.442 54.1 Z" style="stroke:none;fill:#B9EAFF;stroke-miterlimit:10;"/></g><g style="mix-blend-mode:normal;" opacity="0.84"><path d="M 104.442 77.42 L 19.508 77.42 C 16.634 77.42 14.3 75.086 14.3 72.21 L 14.3 71.38 C 14.3 68.504 16.634 66.17 19.508 66.17 L 104.442 66.17 C 107.316 66.17 109.65 68.504 109.65 71.38 L 109.65 72.21 C 109.65 75.086 107.316 77.42 104.442 77.42 Z" style="stroke:none;fill:#B9EAFF;stroke-miterlimit:10;"/></g><path d=" M 178.738 62.481 L 138.996 34.844 L 138.996 62.481 L 178.738 62.481 Z " fill="rgb(0,210,102)"/><path d=" M 6.567 96.186 L 44.35 123.823 L 44.35 96.186 L 6.567 96.186 Z " fill="rgb(13,182,255)"/></g></g></svg>